<?xml version="1.0" encoding="utf-8"?>
<!-- Generator: Adobe Illustrator 26.0.2, SVG Export Plug-In . SVG Version: 6.00 Build 0)  -->
<svg version="1.1" id="Layer_1" xmlns="http://www.w3.org/2000/svg" xmlns:xlink="http://www.w3.org/1999/xlink" x="0px" y="0px"
	 viewBox="0 0 512 512" style="enable-background:new 0 0 512 512;" xml:space="preserve">
<style type="text/css">
	.st0{fill:#41BEE0;}
</style>
<g>
	<path class="st0" d="M51.55,323.93c0,24.78-1.92,32.9-7.05,38.88c-4.49,4.91-11.96,7.26-20.51,7.9l1.92,14.74
		c10.04,0,23.71-3.42,32.04-11.75c9.18-9.4,12.39-22.43,12.39-42.51v-93.78h-18.8V323.93z"/>
	<path class="st0" d="M61.16,196.62c-7.05,0-11.96,5.13-11.96,11.75c0,1.03,0.13,2.02,0.37,2.98c0.92,5.25,5.5,9.25,11.02,9.25
		c2.98,0,5.69-1.17,7.7-3.08c2.8-2.14,4.33-5.49,4.2-9.15C72.48,201.75,67.99,196.62,61.16,196.62z"/>
	<path class="st0" d="M144.9,259.21c-19.87-7.69-28.62-14.31-28.62-27.77c0-9.83,7.48-21.57,27.13-21.57
		c13.03,0,22.64,4.27,27.34,6.84l5.13-15.17c-6.41-3.63-17.09-7.05-31.83-7.05c-27.98,0-46.57,16.66-46.57,39.09
		c0,20.29,14.53,32.47,38.02,40.8c19.44,7.48,27.13,15.17,27.13,28.62c0,14.53-11.11,24.57-30.12,24.57
		c-12.82,0-24.99-4.27-33.32-9.4l-4.7,15.59c7.69,5.13,22.86,9.18,36.74,9.18c33.96,0,50.41-19.22,50.41-41.44
		C181.64,280.35,169.25,268.61,144.9,259.21z"/>
	<path class="st0" d="M251.49,235.07c-28.62,0-51.27,20.29-51.27,54.9c0,32.68,21.57,53.19,49.56,53.19
		c24.99,0,51.48-16.66,51.48-54.9C301.26,256.64,281.18,235.07,251.49,235.07z M250.64,329.06c-18.37,0-31.4-17.09-31.4-39.73
		c0-19.65,9.61-40.16,31.83-40.16c22.22,0,30.97,22.22,30.97,39.73C282.04,312.18,268.58,329.06,250.64,329.06z"/>
	<path class="st0" d="M373.04,250.24c10.25,0,17.3,2.35,21.79,4.91l4.27-14.53c-5.13-2.56-14.95-5.34-26.06-5.34
		c-33.75,0-55.54,23.07-55.54,54.9c0,31.61,20.29,52.76,51.48,52.76c13.89,0,24.78-3.42,29.69-5.98l-3.2-14.1
		c-5.34,2.35-12.39,5.13-23.07,5.13c-20.51,0-35.89-14.74-35.89-38.66C336.51,267.75,349.33,250.24,373.04,250.24z"/>
	<path class="st0" d="M461.91,279.93l39.95-42.51h-22.64l-30.33,35.67c-2.99,3.63-6.62,8.12-9.18,11.75h-0.43v-86.72
		c4.1-0.24,8.15-1.34,11.85-3.34c1.28-0.69,1.45-2.47,0.42-3.49l-16.29-16.29l3.83-3.83c0.36,0.1,0.7,0.22,1.09,0.22
		c2.47,0,4.47-2,4.47-4.47c0-2.47-2-4.47-4.47-4.47c-2.47,0-4.47,2-4.47,4.47c0,0.39,0.13,0.73,0.22,1.09l-3.83,3.83l-16.31-16.31
		c-1.02-1.02-2.81-0.85-3.49,0.42c-5.84,10.87-4.18,24.68,4.98,33.84c1.07,1.07,2.22,2.04,3.41,2.9v148.1h18.58v-38.88l9.61-10.68
		l35.67,49.56h22.86L461.91,279.93z"/>
	<path class="st0" d="M105.84,173.74c1.12,1.02,2.85,1,3.92-0.07l5.99-5.94c1.13-1.12,1.1-2.94-0.06-4.02
		c-31-28.67-79.21-28.66-110.2,0c-1.17,1.08-1.19,2.9-0.06,4.02l5.99,5.94c1.07,1.07,2.8,1.09,3.92,0.07
		C40.87,150.35,80.3,150.34,105.84,173.74z"/>
	<path class="st0" d="M96.05,183.57c-20.17-17.83-50.78-17.82-70.92,0c-1.21,1.07-1.25,2.92-0.1,4.05l6.03,5.95
		c1.05,1.04,2.74,1.11,3.86,0.14c14.69-12.7,36.7-12.67,51.35,0c1.12,0.97,2.81,0.9,3.86-0.14l6.03-5.95
		C97.29,186.49,97.25,184.64,96.05,183.57z"/>
	<path class="st0" d="M437.99,135.42c18.08,0.98,32.6,15.64,33.65,33.73c0.07,1.17,1.04,2.09,2.22,2.1h4.48c0.04,0,0.08,0,0.11,0
		c1.24-0.07,2.19-1.13,2.12-2.37c-1.19-22.8-19.51-41.12-42.31-42.32c-0.04,0-0.08,0-0.12,0c-1.24-0.01-2.25,1-2.26,2.24v4.41
		C435.89,134.38,436.81,135.36,437.99,135.42z"/>
	<path class="st0" d="M437.96,148.91c10.73,0.88,19.28,9.53,20.24,20.28c0.1,1.16,1.06,2.05,2.22,2.05h4.5c0.05,0,0.1,0,0.14-0.01
		c1.25-0.08,2.19-1.16,2.11-2.41c-1.17-15.38-13.48-27.68-28.86-28.87c-0.05,0-0.11-0.01-0.16-0.01c-1.24,0-2.25,1.01-2.25,2.25
		v4.49C435.89,147.86,436.8,148.83,437.96,148.91z"/>
</g>
</svg>
